<svg width="16" height="16" viewBox="0 0 16 16" fill="none" xmlns="http://www.w3.org/2000/svg">
<g clip-path="url(#clip0_2290_10231)">
<path d="M14.9565 3.11642H13.7919C13.9455 2.87329 14.0469 2.60039 14.0758 2.31176C14.1681 1.38935 13.6823 0.562479 12.8553 0.195885C12.0951 -0.141084 11.2408 -0.00333364 10.6257 0.554604L9.15506 1.88742C8.86866 1.57417 8.45694 1.37729 8 1.37729C7.54225 1.37729 7.12988 1.57479 6.84341 1.88901L5.37091 0.554448C4.75475 -0.00348986 3.90081 -0.140709 3.14097 0.196073C2.31416 0.562698 1.82828 1.38985 1.92091 2.31223C1.94987 2.60064 2.05119 2.87342 2.20478 3.11642H1.04347C0.467156 3.11642 0 3.58361 0 4.15989V5.72511C0 6.01323 0.233594 6.24686 0.52175 6.24686H15.4783C15.7664 6.24686 16 6.01326 16 5.72511V4.15989C16 3.58361 15.5328 3.11642 14.9565 3.11642ZM6.43478 2.94251V3.11642H3.98031C3.33181 3.11642 2.82144 2.51186 2.98341 1.83667C3.05475 1.53932 3.26937 1.28585 3.54697 1.15754C3.92816 0.981355 4.35041 1.03792 4.67056 1.3277L6.43522 2.92714C6.43512 2.93229 6.43478 2.93736 6.43478 2.94251ZM13.0404 2.17323C13.0016 2.71551 12.5117 3.11648 11.9681 3.11648H9.56522V2.94257C9.56522 2.93642 9.56484 2.93032 9.56478 2.92417C9.96453 2.56179 10.8317 1.77579 11.3021 1.34945C11.5694 1.10717 11.9434 0.994073 12.2892 1.0972C12.7853 1.2452 13.0767 1.66714 13.0404 2.17323Z" fill="#1C655E"/>
<path d="M1.04346 7.29034V14.9425C1.04346 15.5188 1.51061 15.986 2.08693 15.986H6.95649V7.29034H1.04346Z" fill="#1C655E"/>
<path d="M9.04346 7.29034V15.986H13.913C14.4893 15.986 14.9565 15.5188 14.9565 14.9425V7.29034H9.04346Z" fill="#1C655E"/>
</g>
<defs>
<clipPath id="clip0_2290_10231">
<rect width="16" height="16" fill="white"/>
</clipPath>
</defs>
</svg>
