<svg width="16" height="16" viewBox="0 0 16 16" fill="none" xmlns="http://www.w3.org/2000/svg">
<path d="M15.8623 7.59225L12.7766 3.99111C12.4509 3.61168 11.9754 3.39282 11.4754 3.39282H10.2857C9.65429 3.39282 9.14286 3.90425 9.14286 4.53568V9.67854C9.14286 9.99397 8.88686 10.25 8.57143 10.25H0V11.9643C0 12.5957 0.511429 13.1071 1.14286 13.1071H1.71429C1.71429 14.3677 2.73943 15.3928 4 15.3928C5.26057 15.3928 6.28571 14.3677 6.28571 13.1071H9.14286C9.14286 14.3677 10.168 15.3928 11.4286 15.3928C12.6891 15.3928 13.7143 14.3677 13.7143 13.1071H14.8571C15.4886 13.1071 16 12.5957 16 11.9643V7.96482C16 7.82825 15.9509 7.69625 15.8623 7.59225ZM4 14.25C3.36971 14.25 2.85714 13.7374 2.85714 13.1071C2.85714 12.5305 3.34857 11.9643 4 11.9643C4.64857 11.9643 5.14286 12.5283 5.14286 13.1071C5.14286 13.7374 4.63029 14.25 4 14.25ZM11.4286 14.25C10.7983 14.25 10.2857 13.7374 10.2857 13.1071C10.2857 12.5305 10.7771 11.9643 11.4286 11.9643C12.0771 11.9643 12.5714 12.5283 12.5714 13.1071C12.5714 13.7374 12.0589 14.25 11.4286 14.25ZM14.0394 7.96425H10.8571V5.10711H11.8629C11.9497 5.10711 12.0314 5.14654 12.0857 5.21454L14.132 7.77225C14.1937 7.84939 14.1389 7.96425 14.0394 7.96425Z" fill="#1C655E"/>
<path d="M8 1.67855V8.53569C8 8.85112 7.744 9.10712 7.42857 9.10712H0.571429C0.256 9.10712 0 8.85112 0 8.53569V1.67855C0 1.36312 0.256 1.10712 0.571429 1.10712H2.28571V4.82083C2.28571 5.06312 2.568 5.19569 2.75429 5.04026L4 3.96426L5.24571 5.04026C5.432 5.19512 5.71429 5.06312 5.71429 4.82083V1.10712H7.42857C7.744 1.10712 8 1.36312 8 1.67855Z" fill="#1C655E"/>
</svg>
