<svg width="30" height="30" viewBox="0 0 30 30" fill="none" xmlns="http://www.w3.org/2000/svg">
<path fill-rule="evenodd" clip-rule="evenodd" d="M24.7767 9.57857C24.7427 9.01205 24.2728 8.57042 23.7053 8.57142H19.4196V5.35714C19.4196 2.39846 17.0211 0 14.0624 0C11.1037 0 8.70528 2.39846 8.70528 5.35714V8.57142H4.41957C3.85204 8.57042 3.38215 9.01205 3.34814 9.57857L2.40528 26.6036C2.3047 28.3759 3.65992 29.8942 5.43227 29.9948C5.49461 29.9984 5.55709 30.0001 5.61957 30H22.516C24.2912 30.0029 25.7326 28.5661 25.7354 26.7909C25.7356 26.7284 25.7338 26.6659 25.7303 26.6036L24.7767 9.57857ZM10.8481 5.35714C10.8481 3.58192 12.2872 2.14286 14.0624 2.14286C15.8376 2.14286 17.2767 3.58192 17.2767 5.35714V8.57142H10.8481V5.35714ZM12 12C12 12.6627 11.4628 13.2 10.8 13.2C10.1373 13.2 9.60002 12.6627 9.60002 12C9.60002 11.3373 10.1373 10.8 10.8 10.8C11.4628 10.8 12 11.3373 12 12ZM18 13.2C18.6628 13.2 19.2 12.6627 19.2 12C19.2 11.3373 18.6628 10.8 18 10.8C17.3373 10.8 16.8 11.3373 16.8 12C16.8 12.6627 17.3373 13.2 18 13.2Z" fill="white"/>
</svg>
