<svg width="1709" height="404" viewBox="0 0 1709 404" fill="none" xmlns="http://www.w3.org/2000/svg">
<path d="M478.88 230.03V217.94C469.16 228.84 458.26 232.88 446.65 232.88C418.91 232.88 396.16 212.02 396.16 172.67C396.16 134.75 418.44 112.67 446.65 112.67C458.26 112.67 469.87 116.67 478.88 127.61V71.9302H521.54V230.03H478.88ZM478.88 187.37V157.98C474.88 152.98 466.79 150.39 461.1 150.39C449.49 150.39 439.77 158.45 439.77 172.67C439.77 186.89 449.49 195.19 461.1 195.19C466.79 195.19 474.85 192.34 478.88 187.37Z" fill="white"/>
<path d="M543.35 80.7101C543.35 69.0901 553.54 59.8501 566.1 59.8501C578.66 59.8501 588.62 69.0901 588.62 80.7101C588.62 92.3301 578.62 101.56 566.1 101.56C553.58 101.56 543.35 92.3201 543.35 80.7101ZM545.24 230.03V115.51H587.94V230.03H545.24Z" fill="white"/>
<path d="M686.499 230.03V217.94C676.789 228.84 665.879 232.88 654.269 232.88C626.539 232.88 603.779 212.02 603.779 172.67C603.779 134.75 626.059 112.67 654.269 112.67C665.879 112.67 677.499 116.67 686.499 127.61V71.9302H729.169V230.03H686.499ZM686.499 187.37V157.98C682.499 152.98 674.419 150.39 668.729 150.39C657.109 150.39 647.399 158.45 647.399 172.67C647.399 186.89 657.109 195.19 668.729 195.19C674.419 195.19 682.469 192.34 686.499 187.37Z" fill="white"/>
<path d="M745.039 172.67C745.039 140.67 768.739 112.67 809.279 112.67C850.039 112.67 873.749 140.67 873.749 172.67C873.749 204.67 850.039 232.88 809.279 232.88C768.739 232.88 745.039 204.67 745.039 172.67ZM829.899 172.67C829.899 160.11 822.549 150.39 809.279 150.39C796.279 150.39 788.889 160.11 788.889 172.67C788.889 185.47 796.239 195.19 809.279 195.19C822.549 195.19 829.939 185.51 829.939 172.67H829.899Z" fill="white"/>
<path d="M967.129 230.03V166.74C967.129 154.89 960.729 150.39 950.529 150.39C940.819 150.39 935.839 155.39 932.289 159.39V230.02H889.619V115.51H932.289V128.51C938.919 120.92 951.479 112.62 971.629 112.62C998.179 112.62 1009.79 128.74 1009.79 148.62V229.92L967.129 230.03Z" fill="white"/>
<path d="M1029.46 259.42L1047.46 229.08C1056.23 237.85 1069.27 241.64 1081.59 241.64C1091.59 241.64 1108.14 237.85 1108.14 217.71V211.51C1098.42 222.65 1087.76 226.92 1075.9 226.92C1048.41 226.92 1025.65 208.92 1025.65 169.8C1025.65 131.63 1047.65 112.67 1075.9 112.67C1087.76 112.67 1098.9 116.67 1108.14 127.61V115.51H1150.8V217.71C1150.8 267.24 1110.04 276.49 1081.59 276.49C1061.94 276.51 1044.39 271.27 1029.46 259.42ZM1108.15 181.91V157.74C1104.15 153 1096.06 150.39 1090.61 150.39C1078.99 150.39 1069.28 155.84 1069.28 169.83C1069.28 183.82 1078.99 189.26 1090.61 189.26C1096.06 189.26 1104.12 186.66 1108.15 181.91Z" fill="white"/>
<path opacity="0.8" d="M1203.43 230.03L1159.1 115.51H1204.1L1225.9 180.93L1247.9 115.51H1292.9L1248.58 229.99L1203.43 230.03Z" fill="white"/>
<path opacity="0.8" d="M1299.41 80.7101C1299.41 69.0901 1309.6 59.8501 1322.17 59.8501C1334.74 59.8501 1344.68 69.0901 1344.68 80.7101C1344.68 92.3301 1334.68 101.56 1322.17 101.56C1309.66 101.56 1299.41 92.3201 1299.41 80.7101ZM1301.31 230.03V115.51H1343.94V230.03H1301.31Z" fill="white"/>
<path opacity="0.8" d="M1359.85 172.67C1359.85 139.49 1385.21 112.67 1422.19 112.67C1455.85 112.67 1481.68 136.85 1481.68 177.14V185.91H1403.94C1406.31 193.26 1414.6 200.37 1428.59 200.37C1434.99 200.37 1449.21 197.29 1454.9 192.31L1472.44 218.62C1461.06 228.34 1440.68 232.85 1423.61 232.85C1387.82 232.88 1359.85 210.36 1359.85 172.67ZM1422.19 145.18C1409.19 145.18 1404.89 153.71 1403.46 158.92H1441.15C1439.94 153.95 1435.94 145.18 1422.19 145.18Z" fill="white"/>
<path opacity="0.8" d="M1505.14 196.85V152.51H1486.14V115.51H1505.14V84.26H1547.8V115.51H1571.03V152.51H1547.8V184.51C1547.8 190.44 1551.6 195.18 1557.28 195.18C1561.08 195.18 1564.87 193.99 1565.82 193.04L1573.4 225.28C1568.9 229.28 1558.94 232.87 1544.49 232.87C1519.12 232.88 1505.14 220.79 1505.14 196.85Z" fill="white"/>
<path opacity="0.8" d="M1582.16 224.7C1582.16 223.411 1582.54 222.15 1583.26 221.078C1583.98 220.006 1584.99 219.17 1586.19 218.676C1587.38 218.183 1588.69 218.054 1589.95 218.305C1591.22 218.557 1592.38 219.178 1593.29 220.09C1594.2 221.002 1594.82 222.163 1595.07 223.428C1595.33 224.693 1595.2 226.004 1594.7 227.195C1594.21 228.387 1593.37 229.405 1592.3 230.121C1591.23 230.838 1589.97 231.22 1588.68 231.22C1586.96 231.202 1585.31 230.509 1584.09 229.29C1582.87 228.072 1582.18 226.424 1582.16 224.7Z" fill="white"/>
<path opacity="0.8" d="M1618.54 230.03L1594.73 172.8H1604.33L1623.4 219.72L1642.4 172.8H1652.11L1628.3 230.03H1618.54Z" fill="white"/>
<path opacity="0.8" d="M1699.94 230.03V192.59C1699.94 182.52 1694.85 179.32 1687.15 179.32C1680.15 179.32 1673.52 183.58 1670.15 188.21V230.03H1661.27V172.8H1670.15V181.1C1674.15 176.36 1682 171.38 1690.53 171.38C1702.53 171.38 1708.78 177.38 1708.78 189.87V230.03H1699.94Z" fill="white"/>
<path opacity="0.8" d="M169.42 0C252.85 0 323.93 67.65 323.93 151.08C323.93 234.51 252.85 302.16 169.42 302.16V253.16C181.418 253.338 193.331 251.129 204.468 246.661C215.604 242.193 225.741 235.556 234.288 227.134C242.836 218.713 249.623 208.676 254.256 197.607C258.889 186.539 261.275 174.659 261.275 162.66C261.275 150.661 258.889 138.781 254.256 127.713C249.623 116.644 242.836 106.607 234.288 98.1858C225.741 89.7644 215.604 83.1267 204.468 78.6587C193.331 74.1907 181.418 71.9816 169.42 72.16V0Z" fill="white"/>
<path d="M154.51 1.38749e-06H36.06C31.3242 -0.00131248 26.6345 0.9305 22.2589 2.74222C17.8833 4.55394 13.9076 7.21005 10.5588 10.5588C7.21007 13.9075 4.55395 17.8833 2.74223 22.2589C0.930516 26.6345 -0.00131248 31.3242 1.38747e-06 36.06V277.51C1.38747e-06 284.037 2.59283 290.297 7.2081 294.912C11.8234 299.527 18.083 302.12 24.61 302.12H154.51V253.12H86.94C85.0039 253.121 83.0866 252.741 81.2977 252.001C79.5088 251.26 77.8833 250.175 76.5143 248.806C75.1453 247.437 74.0596 245.811 73.3193 244.022C72.579 242.233 72.1987 240.316 72.2 238.38V238.63V93.51V93.81C72.2026 88.083 74.4795 82.5916 78.53 78.543C82.5805 74.4943 88.073 72.22 93.8 72.22H93.62H154.55L154.51 1.38749e-06Z" fill="white"/>
<path opacity="0.8" d="M403.43 379.69C400.863 378.351 398.769 376.257 397.43 373.69C395.957 370.731 395.236 367.454 395.33 364.15V328.58C395.236 325.276 395.957 321.999 397.43 319.04C398.766 316.471 400.861 314.376 403.43 313.04C406.411 311.674 409.651 310.967 412.93 310.967C416.209 310.967 419.449 311.674 422.43 313.04C425.017 314.38 427.116 316.5 428.43 319.1C429.884 322.076 430.598 325.359 430.51 328.67V334.25H417.94V328.67C417.963 327.623 417.773 326.581 417.38 325.61C417.044 324.781 416.452 324.08 415.69 323.61C414.871 323.164 413.953 322.93 413.02 322.93C412.087 322.93 411.169 323.164 410.35 323.61C409.592 324.084 409.001 324.783 408.66 325.61C408.256 326.575 408.059 327.614 408.08 328.66V364.11C408.059 365.14 408.257 366.162 408.66 367.11C409.012 367.914 409.601 368.591 410.35 369.05C411.15 369.507 412.059 369.739 412.98 369.72C413.934 369.748 414.878 369.517 415.71 369.05C416.46 368.599 417.046 367.919 417.38 367.11C417.777 366.133 417.968 365.084 417.94 364.03V358.51H430.63V364.09C430.719 367.404 430.006 370.691 428.55 373.67C427.233 376.268 425.135 378.387 422.55 379.73C419.569 381.096 416.329 381.803 413.05 381.803C409.771 381.803 406.531 381.096 403.55 379.73L403.43 379.69Z" fill="white"/>
<path opacity="0.8" d="M437.55 311.63H450.09V381.05H437.55V311.63ZM443.55 341.28H468.14V352.4H443.51L443.55 341.28ZM460.04 311.63H472.57V381.05H460L460.04 311.63Z" fill="white"/>
<path opacity="0.8" d="M488.839 379.69C486.263 378.363 484.166 376.266 482.839 373.69C481.387 370.76 480.672 367.519 480.759 364.25V311.63H493.349V364.63C493.263 366.063 493.732 367.474 494.659 368.57C495.131 369.05 495.7 369.423 496.327 369.666C496.955 369.909 497.627 370.016 498.299 369.98C498.974 370 499.647 369.88 500.273 369.627C500.9 369.374 501.467 368.994 501.939 368.51C502.884 367.423 503.366 366.008 503.279 364.57V311.57H515.939V364.18C516.029 367.452 515.308 370.695 513.839 373.62C512.482 376.198 510.362 378.293 507.769 379.62C504.807 380.99 501.582 381.7 498.319 381.7C495.055 381.7 491.831 380.99 488.869 379.62L488.839 379.69Z" fill="white"/>
<path opacity="0.8" d="M544.319 354.51V381.1H531.779V354.51L518.029 311.68H531.029L537.939 340.37L544.509 311.63H557.509L544.319 354.51Z" fill="white"/>
<path opacity="0.8" d="M561 311.63H573.54V381.05H561V311.63ZM593.46 300.37L585.87 307L577.48 300L569.14 307L561.51 300.37L577.51 287.72L593.46 300.37ZM566.56 311.63H593.66V323.19H566.56V311.63ZM566.56 340.81H591.13V352.31H566.56V340.81ZM566.56 369.5H593.66V381.05H566.56V369.5ZM600.03 278.4C600.915 279.091 601.617 279.988 602.076 281.013C602.534 282.038 602.735 283.16 602.66 284.28C602.72 285.242 602.538 286.203 602.131 287.077C601.724 287.95 601.105 288.708 600.33 289.28C598.783 290.367 596.423 290.913 593.25 290.92L587.69 288.72C589.021 288.788 590.353 288.594 591.61 288.15C591.973 288.046 592.296 287.833 592.534 287.54C592.772 287.246 592.913 286.887 592.94 286.51C592.949 286.214 592.875 285.922 592.727 285.666C592.578 285.409 592.361 285.2 592.1 285.06C591.346 284.678 590.503 284.506 589.66 284.56C588.57 284.574 587.484 284.702 586.42 284.94L585.86 277.15C587.915 276.673 590.021 276.451 592.13 276.49C595.63 276.45 598.27 277.1 600.03 278.4ZM586.83 288.76H597.65V293.01H586.83V288.76Z" fill="white"/>
<path opacity="0.8" d="M600.131 311.63H609.991L627.271 357.95L625.941 359.81V311.63H637.341V381.01H627.341L610.251 337.37L611.561 335.46V381.01H600.131V311.63Z" fill="white"/>
<path opacity="0.8" d="M703.861 343.57V364.34C703.953 367.592 703.213 370.814 701.711 373.7C700.301 376.297 698.121 378.393 695.471 379.7C692.415 381.16 689.056 381.873 685.671 381.78C682.229 381.88 678.809 381.197 675.671 379.78C673.009 378.539 670.795 376.506 669.331 373.96C667.804 371.168 667.045 368.021 667.131 364.84V328.84C667.039 325.505 667.777 322.199 669.281 319.22C670.672 316.57 672.853 314.417 675.521 313.06C678.572 311.675 681.882 310.952 685.233 310.94C688.584 310.928 691.9 311.627 694.961 312.99C697.581 314.304 699.727 316.401 701.101 318.99C702.587 321.881 703.319 325.101 703.231 328.35V333.69H690.331V328.35C690.357 327.353 690.151 326.364 689.731 325.46C689.351 324.676 688.741 324.027 687.981 323.6C687.17 323.154 686.256 322.93 685.331 322.95C684.314 322.927 683.309 323.175 682.421 323.67C681.603 324.13 680.944 324.828 680.531 325.67C680.069 326.655 679.843 327.733 679.871 328.82V364.82C679.853 365.733 680.088 366.633 680.551 367.42C681.026 368.184 681.724 368.785 682.551 369.14C684.55 369.96 686.792 369.96 688.791 369.14C689.627 368.757 690.326 368.125 690.791 367.33C691.283 366.459 691.528 365.47 691.501 364.47V354.97H685.331V343.57H703.861Z" fill="white"/>
<path opacity="0.8" d="M723.38 381.05H710.84V311.63H723.38V381.05Z" fill="white"/>
<path opacity="0.8" d="M744.351 311.63H753.151L770.691 381.05H758.261L748.751 335.56L739.251 381.05H726.811L744.351 311.63ZM738.751 359.18H758.751V370.26H738.751V359.18Z" fill="white"/>
<path opacity="0.8" d="M780.779 379.83C778.113 378.671 775.865 376.724 774.339 374.25C772.789 371.579 772.017 368.527 772.109 365.44V327.24C772.021 324.147 772.793 321.09 774.339 318.41C775.857 315.929 778.107 313.979 780.779 312.83C787.296 310.283 794.532 310.283 801.049 312.83C803.722 313.981 805.975 315.93 807.499 318.41C809.037 321.093 809.805 324.148 809.719 327.24V365.44C809.81 368.526 809.041 371.576 807.499 374.25C805.966 376.722 803.716 378.669 801.049 379.83C794.54 382.417 787.288 382.417 780.779 379.83ZM794.229 369.21C795.124 368.763 795.855 368.046 796.319 367.16C796.823 366.153 797.067 365.036 797.029 363.91V328.68C797.063 327.571 796.819 326.471 796.319 325.48C795.858 324.592 795.126 323.874 794.229 323.43C793.2 322.927 792.064 322.68 790.919 322.71C789.78 322.679 788.651 322.926 787.629 323.43C786.742 323.881 786.018 324.597 785.559 325.48C785.064 326.473 784.82 327.571 784.849 328.68V363.91C784.816 365.035 785.06 366.151 785.559 367.16C786.021 368.041 786.744 368.757 787.629 369.21C788.651 369.714 789.78 369.961 790.919 369.93C792.064 369.96 793.2 369.713 794.229 369.21Z" fill="white"/>
<path d="M876.249 343.57V364.34C876.337 367.592 875.597 370.812 874.099 373.7C872.683 376.296 870.5 378.391 867.849 379.7C864.794 381.162 861.435 381.875 858.049 381.78C854.607 381.883 851.187 381.199 848.049 379.78C845.385 378.539 843.167 376.507 841.699 373.96C840.175 371.167 839.416 368.021 839.499 364.84V328.84C839.412 325.505 840.151 322.201 841.649 319.22C843.045 316.569 845.228 314.417 847.899 313.06C850.95 311.675 854.261 310.952 857.612 310.94C860.963 310.928 864.278 311.627 867.339 312.99C869.955 314.31 872.099 316.405 873.479 318.99C874.957 321.884 875.686 325.102 875.599 328.35V333.69H862.709V328.35C862.737 327.352 862.528 326.362 862.099 325.46C861.727 324.674 861.118 324.024 860.359 323.6C859.544 323.155 858.627 322.931 857.699 322.95C856.682 322.927 855.678 323.175 854.789 323.67C853.974 324.133 853.315 324.83 852.899 325.67C852.437 326.655 852.211 327.733 852.239 328.82V364.82C852.22 365.734 852.459 366.636 852.929 367.42C853.403 368.186 854.101 368.786 854.929 369.14C856.932 369.96 859.176 369.96 861.179 369.14C862.017 368.758 862.716 368.126 863.179 367.33C863.675 366.461 863.921 365.471 863.889 364.47V354.97H857.719V343.57H876.249Z" fill="white"/>
<path d="M895.761 381.05H883.221V311.63H895.761V381.05Z" fill="white"/>
<path d="M916.739 311.63H925.529L943.069 381.05H930.639L921.139 335.56L911.629 381.05H899.199L916.739 311.63ZM911.129 359.18H931.129V370.26H911.129V359.18ZM914.259 300.08L926.999 287.62L936.199 295.98L922.199 307.34L914.259 300.08Z" fill="white"/>
<path d="M964.311 311.63H1001.11V323H964.311V311.63ZM976.441 317.51H988.941V381.1H976.441V317.51Z" fill="white"/>
<path d="M1007.08 311.59H1019.36V381.05H1007.08V311.59ZM1012.69 340.33H1025.94C1026.91 340.355 1027.87 340.167 1028.75 339.78C1029.5 339.453 1030.12 338.9 1030.54 338.2C1030.96 337.455 1031.18 336.607 1031.15 335.75V328.01C1031.18 327.067 1030.97 326.132 1030.54 325.29C1030.14 324.534 1029.52 323.924 1028.75 323.55C1027.87 323.131 1026.91 322.926 1025.94 322.95H1012.7V311.59H1025.18C1028.67 311.498 1032.13 312.12 1035.37 313.42C1038.02 314.515 1040.27 316.4 1041.81 318.82C1043.35 321.389 1044.13 324.345 1044.04 327.34V335.51C1044.13 338.581 1043.35 341.615 1041.81 344.27C1040.28 346.749 1038.02 348.691 1035.34 349.83C1032.13 351.178 1028.66 351.829 1025.18 351.74H1012.7L1012.69 340.33ZM1022.94 349.51L1034.41 347.31L1046.14 381.02H1032.7L1022.94 349.51Z" fill="white"/>
<path d="M1052.63 391.56H1065.16V403.4H1052.63V391.56ZM1065.36 381.05H1052.83V311.63H1065.36V381.05Z" fill="white"/>
<path d="M1089.63 311.63H1102.94L1109.94 359.57L1116.94 311.63H1130.24L1116.69 381.05H1103.14L1089.63 311.63Z" fill="white"/>
<path d="M1146.07 379.69C1143.5 378.359 1141.4 376.263 1140.07 373.69C1138.62 370.759 1137.91 367.518 1138 364.25V311.63H1150.59V364.63C1150.5 366.064 1150.97 367.477 1151.9 368.57C1152.37 369.05 1152.94 369.424 1153.57 369.667C1154.2 369.91 1154.87 370.017 1155.54 369.98C1156.22 370.019 1156.91 369.913 1157.55 369.67C1158.19 369.428 1158.77 369.053 1159.26 368.57C1160.21 367.483 1160.69 366.068 1160.6 364.63V311.63H1173.18V364.24C1173.27 367.51 1172.55 370.752 1171.09 373.68C1169.73 376.255 1167.61 378.35 1165.02 379.68C1162.06 381.05 1158.83 381.76 1155.56 381.76C1152.3 381.76 1149.07 381.05 1146.11 379.68L1146.07 379.69ZM1161.36 318.17V311.63H1169.1C1169.86 311.677 1170.62 311.57 1171.34 311.315C1172.05 311.061 1172.71 310.665 1173.27 310.15C1173.79 309.597 1174.19 308.943 1174.44 308.229C1174.7 307.516 1174.81 306.757 1174.76 306V301.51H1187.14V306.95C1187.14 310.52 1186.07 313.28 1183.91 315.24C1181.75 317.2 1178.72 318.17 1174.81 318.17H1161.36Z" fill="white"/>
<path d="M1193.39 379.83C1190.72 378.674 1188.47 376.726 1186.95 374.25C1185.4 371.578 1184.63 368.527 1184.72 365.44V327.24C1184.63 324.147 1185.4 321.09 1186.95 318.41C1188.46 315.926 1190.72 313.976 1193.39 312.83C1199.91 310.283 1207.14 310.283 1213.66 312.83C1216.33 313.981 1218.59 315.93 1220.11 318.41C1221.65 321.093 1222.42 324.148 1222.33 327.24V365.44C1222.42 368.526 1221.65 371.576 1220.11 374.25C1218.58 376.722 1216.33 378.669 1213.66 379.83C1207.15 382.417 1199.9 382.417 1193.39 379.83ZM1197.31 391.56H1209.84V403.4H1197.31V391.56ZM1206.84 369.21C1207.73 368.76 1208.46 368.044 1208.93 367.16C1209.43 366.153 1209.68 365.036 1209.64 363.91V328.68C1209.67 327.571 1209.43 326.471 1208.93 325.48C1208.47 324.594 1207.74 323.877 1206.84 323.43C1205.81 322.927 1204.68 322.68 1203.53 322.71C1202.39 322.679 1201.26 322.926 1200.24 323.43C1199.35 323.881 1198.63 324.597 1198.17 325.48C1197.68 326.472 1197.43 327.571 1197.46 328.68V363.91C1197.43 365.035 1197.67 366.151 1198.17 367.16C1198.63 368.04 1199.36 368.756 1200.24 369.21C1201.26 369.714 1202.39 369.961 1203.53 369.93C1204.68 369.96 1205.81 369.713 1206.84 369.21ZM1208.63 319.51V312.06H1216.41C1220.16 312.06 1222.04 310.01 1222.03 305.91V303.42H1234.46V306.86C1234.46 311.1 1233.43 314.267 1231.38 316.36C1229.38 318.46 1226.22 319.51 1222.08 319.51H1208.63Z" fill="white"/>
<path d="M1237.4 311.63H1274.2V323H1237.4V311.63ZM1249.53 317.46H1262.06V381.05H1249.53V317.46Z" fill="white"/>
<path d="M1293.94 311.63H1330.74V323H1293.94V311.63ZM1306.04 317.51H1318.58V381.1H1306.04V317.51Z" fill="white"/>
<path d="M1336.68 311.59H1348.94V381.05H1336.66L1336.68 311.59ZM1342.29 340.33H1355.53C1356.5 340.355 1357.46 340.167 1358.34 339.78C1359.09 339.45 1359.72 338.898 1360.14 338.2C1360.56 337.452 1360.76 336.606 1360.74 335.75V328.01C1360.76 327.068 1360.56 326.134 1360.14 325.29C1359.74 324.532 1359.11 323.922 1358.34 323.55C1357.46 323.131 1356.5 322.926 1355.53 322.95H1342.29V311.59H1354.77C1358.26 311.498 1361.72 312.12 1364.96 313.42C1367.61 314.516 1369.86 316.401 1371.41 318.82C1372.94 321.391 1373.71 324.347 1373.63 327.34V335.51C1373.72 338.579 1372.95 341.612 1371.41 344.27C1369.88 346.747 1367.62 348.689 1364.94 349.83C1361.72 351.177 1358.26 351.828 1354.77 351.74H1342.29V340.33ZM1352.5 349.54L1363.98 347.34L1375.7 381.05H1362.26L1352.5 349.54Z" fill="white"/>
<path d="M1390.09 379.83C1387.42 378.672 1385.17 376.724 1383.64 374.25C1382.1 371.576 1381.33 368.526 1381.42 365.44V327.24C1381.33 324.148 1382.1 321.093 1383.64 318.41C1385.16 315.928 1387.41 313.978 1390.09 312.83C1396.61 310.283 1403.84 310.283 1410.36 312.83C1413.03 313.981 1415.29 315.93 1416.81 318.41C1418.35 321.093 1419.12 324.148 1419.03 327.24V365.44C1419.12 368.526 1418.35 371.576 1416.81 374.25C1415.28 376.722 1413.03 378.669 1410.36 379.83C1403.85 382.417 1396.6 382.417 1390.09 379.83ZM1416.09 300.37L1408.51 307L1400.11 300L1391.77 307L1384.14 300.37L1400.14 287.72L1416.09 300.37ZM1394 391.56H1406.53V403.4H1394V391.56ZM1403.53 369.21C1404.42 368.76 1405.15 368.044 1405.62 367.16C1406.12 366.153 1406.37 365.036 1406.33 363.91V328.68C1406.36 327.571 1406.12 326.471 1405.62 325.48C1405.16 324.594 1404.42 323.877 1403.53 323.43C1402.5 322.927 1401.36 322.68 1400.22 322.71C1399.08 322.679 1397.95 322.926 1396.93 323.43C1396.04 323.881 1395.32 324.597 1394.86 325.48C1394.36 326.472 1394.12 327.571 1394.15 328.68V363.91C1394.12 365.035 1394.36 366.151 1394.86 367.16C1395.32 368.04 1396.04 368.757 1396.93 369.21C1397.95 369.714 1399.08 369.961 1400.22 369.93C1401.37 369.961 1402.51 369.714 1403.54 369.21H1403.53Z" fill="white"/>
<path d="M1438.54 381.05H1426.01V311.63H1438.54V381.05Z" fill="white"/>
</svg>
