<svg width="30" height="30" viewBox="0 0 30 30" fill="none" xmlns="http://www.w3.org/2000/svg">
<g clip-path="url(#clip0_3438_11915)">
<path d="M29.3333 7.4204C29.3333 7.38869 29.3333 7.38869 29.3333 7.35697C29.3016 7.29355 29.3016 7.23013 29.2699 7.16671V7.135C29.2382 7.07157 29.1748 7.00815 29.143 6.97644L29.1113 6.94473C29.0796 6.91302 29.0162 6.88131 28.9845 6.8496L28.9528 6.81789H28.9211L28.8894 6.78617L15.4121 0.0951333C15.1584 -0.0317111 14.8413 -0.0317111 14.5559 0.0951333L10.0212 2.34662L23.5619 9.29135L23.5936 9.32306C23.6253 9.32306 23.6253 9.35477 23.657 9.35477C23.6887 9.38648 23.6887 9.4182 23.7204 9.44991C23.7204 9.48162 23.7204 9.48162 23.7204 9.51333V9.54504V16.902C23.7204 17.0289 23.657 17.124 23.5619 17.1874L20.8347 18.6144C20.6762 18.7095 20.4859 18.6461 20.3908 18.4876C20.3591 18.4559 20.3591 18.3924 20.3591 18.329V11.1306L6.65987 4.05902L6.62816 4.02731L1.14214 6.75446L1.11043 6.78617H1.07872L1.04701 6.81789C1.0153 6.8496 0.951877 6.88131 0.920165 6.91302L0.888454 6.94473C0.825032 7.00815 0.793321 7.07157 0.729899 7.135V7.16671C0.698188 7.23013 0.666477 7.29355 0.666477 7.35697C0.666477 7.38869 0.666477 7.38869 0.666477 7.4204C0.666477 7.48382 0.634766 7.51553 0.634766 7.57895V7.61066V22.388C0.634766 22.7369 0.825032 23.0857 1.17385 23.2442L14.5242 29.9036C14.7145 29.9987 14.9365 30.0304 15.1584 29.967L15.2219 29.9353C15.2853 29.9353 15.317 29.9036 15.3804 29.8719L28.8259 23.2125C29.143 23.054 29.365 22.7369 29.365 22.3563V7.61066V7.57895C29.3333 7.51553 29.3333 7.48382 29.3333 7.4204Z" fill="white"/>
</g>
<defs>
<clipPath id="clip0_3438_11915">
<rect width="30" height="30" fill="white"/>
</clipPath>
</defs>
</svg>
