<svg width="30" height="30" viewBox="0 0 30 30" fill="none" xmlns="http://www.w3.org/2000/svg">
<g clip-path="url(#clip0_3438_11906)">
<path d="M15.002 0C10.7163 0 7.21289 3.50339 7.21289 7.78913C7.21289 12.0749 10.7163 15.5783 15.002 15.5783C19.2877 15.5783 22.7911 12.0749 22.7911 7.78913C22.7911 3.50339 19.2877 0 15.002 0Z" fill="white"/>
<path d="M28.3695 21.8028C28.1654 21.2926 27.8933 20.8164 27.5872 20.3742C26.0225 18.0612 23.6076 16.5306 20.8865 16.1565C20.5464 16.1225 20.1723 16.1905 19.9001 16.3946C18.4716 17.449 16.7709 17.9932 15.0022 17.9932C13.2334 17.9932 11.5328 17.449 10.1042 16.3946C9.83205 16.1905 9.4579 16.0885 9.11779 16.1565C6.3967 16.5306 3.94774 18.0612 2.41714 20.3742C2.11102 20.8164 1.83889 21.3266 1.63485 21.8028C1.53283 22.0069 1.56681 22.245 1.66883 22.4491C1.94097 22.9253 2.28107 23.4015 2.58719 23.8096C3.06336 24.4559 3.57359 25.0341 4.15184 25.5783C4.62801 26.0545 5.17222 26.4967 5.71649 26.9389C8.40353 28.9457 11.6348 30.0001 14.9682 30.0001C18.3015 30.0001 21.5328 28.9456 24.2199 26.9389C24.7641 26.5307 25.3083 26.0545 25.7845 25.5783C26.3287 25.0341 26.8729 24.4559 27.3492 23.8096C27.6893 23.3674 27.9955 22.9253 28.2675 22.4491C28.4375 22.245 28.4715 22.0068 28.3695 21.8028Z" fill="white"/>
</g>
<defs>
<clipPath id="clip0_3438_11906">
<rect width="30" height="30" fill="white"/>
</clipPath>
</defs>
</svg>
